<svg width="125" height="42" viewBox="0 0 125 42" fill="none" xmlns="http://www.w3.org/2000/svg">
<path d="M21.5945 9.90759L21.593 9.88966L2.54028 9.88828L25.1667 6.57517L3.75 6.6L28.3472 3.24139L28.3361 3.22897L4.91528 3.31034L32.0945 0.00827526L32.0847 0L6.18333 0.0110337L4.56389 3.31034L4.55278 3.30897L2.98195 6.70207H2.99583L1.45555 10.0455L1.48055 10.0441L0 13.3103L21.5945 9.90759Z" fill="white"/>
<path d="M38.0303 8.42082C32.1149 14.2843 23.8691 24.1105 16.883 38.6236C24.3288 22.0898 32.1691 11.0236 36.6955 5.476L36.6705 5.45806C30.7399 10.9726 20.9788 21.7546 12.9246 38.6691C21.7788 18.8719 31.3927 6.81944 35.3274 2.45393H35.2927C29.9344 6.94772 17.7913 18.6457 8.29966 38.916C20.0011 12.4801 33.0621 0.543584 33.4733 0.253929L33.4899 0.207031L33.0496 0.509099C28.8663 3.76151 14.308 16.2788 3.60938 40.2677L7.66216 40.3022L7.68716 40.3036L12.1413 40.345H12.1928L16.0496 40.3794H16.1038L21.5483 40.4305C25.9399 24.7049 33.5024 14.6926 38.0149 8.44704L38.0303 8.42082Z" fill="white"/>
<path d="M50.1806 22.7289C50.0113 23.1314 49.7502 23.4872 49.3937 23.7984C49.0372 24.106 48.5798 24.3564 48.0215 24.5478C47.4632 24.7373 46.8006 24.8339 46.0353 24.8339C45.7183 24.8339 45.4013 24.8124 45.0916 24.7677C44.7783 24.723 44.4776 24.6676 44.1877 24.596C43.8977 24.5263 43.6312 24.4404 43.3899 24.3439C43.1504 24.2455 42.9433 24.149 42.7669 24.0506C42.711 24.0184 42.6966 23.979 42.7164 23.9361L43.1954 22.3713C43.2153 22.3051 43.2584 22.2891 43.3251 22.3213C43.6762 22.5394 44.0995 22.7218 44.6001 22.8685C45.0971 23.0151 45.6247 23.0884 46.1829 23.0884C46.851 23.0884 47.3697 22.9525 47.7352 22.6807C48.1025 22.4089 48.2826 22.0548 48.2826 21.6202C48.2826 21.2179 48.1224 20.8834 47.791 20.6169C47.4632 20.3505 46.9321 20.1019 46.1991 19.8748C45.7057 19.721 45.2591 19.5475 44.8611 19.3436C44.4613 19.1452 44.1175 18.9109 43.8347 18.6444C43.5502 18.3779 43.3287 18.0775 43.1702 17.7467C43.01 17.4158 42.9307 17.0385 42.9307 16.6129C42.9307 16.1568 43.028 15.7348 43.2171 15.3484C43.4098 14.9622 43.6834 14.6278 44.04 14.3452C44.3948 14.0627 44.8233 13.8427 45.3203 13.6853C45.8191 13.5297 46.3791 13.4492 47.004 13.4492C47.6704 13.4492 48.2448 13.5064 48.7202 13.6209C49.1956 13.7336 49.5935 13.873 49.9105 14.0376C49.9646 14.059 49.9825 14.0948 49.9591 14.1503L49.4675 15.6507C49.4568 15.6829 49.4333 15.7062 49.4009 15.7169C49.3684 15.7276 49.3414 15.7223 49.318 15.7008C49.1326 15.6006 48.8354 15.488 48.4231 15.3557C48.0143 15.2269 47.5281 15.1625 46.9716 15.1625C46.6205 15.1625 46.3252 15.2001 46.0857 15.2769C45.8426 15.3503 45.6481 15.4522 45.5023 15.5774C45.3546 15.7025 45.2447 15.8438 45.1727 16.0012C45.1025 16.1604 45.0664 16.3142 45.0664 16.4662C45.0664 16.8686 45.2411 17.1923 45.5923 17.4373C45.9416 17.6805 46.5053 17.9237 47.2832 18.1634C48.3349 18.4996 49.1235 18.9216 49.6494 19.4259C50.1734 19.9338 50.4346 20.6206 50.4346 21.4896C50.4346 21.9135 50.3516 22.3284 50.1806 22.7289Z" fill="white"/>
<path d="M56.8572 15.39V24.5392C56.8572 24.6035 56.8248 24.6357 56.7582 24.6357H54.8367C54.7719 24.6357 54.7395 24.6035 54.7395 24.5392V15.39H51.2748C51.2082 15.39 51.1758 15.356 51.1758 15.2916V13.725C51.1758 13.6714 51.2082 13.6445 51.2748 13.6445H60.3399C60.4047 13.6445 60.4389 13.6714 60.4389 13.725V15.2916C60.4389 15.356 60.4047 15.39 60.3399 15.39H56.8572Z" fill="white"/>
<path d="M63.5416 20.7386C63.7054 21.2179 63.9377 21.6363 64.2403 21.9939C64.5392 22.3534 64.9102 22.636 65.3477 22.8417C65.7872 23.0509 66.2788 23.1529 66.8261 23.1529C67.3863 23.1529 67.8869 23.0509 68.328 22.8417C68.7728 22.636 69.1474 22.3534 69.4553 21.9939C69.7615 21.6363 69.9955 21.2089 70.1613 20.7136C70.3251 20.2199 70.4079 19.6852 70.4079 19.1076C70.4079 18.5961 70.3305 18.1008 70.1774 17.6233C70.0244 17.1457 69.7956 16.7219 69.4949 16.3518C69.1942 15.9815 68.8215 15.6865 68.3784 15.4629C67.9337 15.2394 67.4258 15.1285 66.8587 15.1285C66.2788 15.1285 65.7673 15.2376 65.3225 15.454C64.8814 15.674 64.5068 15.9636 64.206 16.3356C63.9035 16.7059 63.6767 17.1368 63.5254 17.6323C63.3705 18.1258 63.2949 18.6515 63.2949 19.2059C63.2949 19.7496 63.3777 20.2611 63.5416 20.7386ZM72.1961 21.4396C71.9007 22.1585 71.4883 22.7666 70.9644 23.2673C70.4385 23.768 69.8191 24.1544 69.1005 24.4261C68.3839 24.6962 67.6095 24.832 66.7776 24.832C65.924 24.832 65.146 24.6908 64.4456 24.4082C63.7432 24.1257 63.1454 23.7377 62.6466 23.2423C62.1478 22.7468 61.7624 22.1603 61.4905 21.4807C61.215 20.8029 61.0781 20.0643 61.0781 19.2704C61.0781 18.4119 61.224 17.6269 61.5121 16.915C61.8021 16.2033 62.2072 15.5881 62.7204 15.0713C63.2373 14.5562 63.8514 14.1557 64.568 13.873C65.2866 13.5905 66.0645 13.4492 66.9091 13.4492C67.7842 13.4492 68.5747 13.5905 69.2824 13.873C69.9883 14.1557 70.588 14.5456 71.0887 15.0391C71.5856 15.5344 71.9692 16.1228 72.2357 16.8095C72.5058 17.4927 72.6408 18.2331 72.6408 19.0272C72.6408 19.9177 72.4914 20.7207 72.1961 21.4396Z" fill="white"/>
<path d="M82.2725 13.6352C82.7929 13.7604 83.1675 13.882 83.3979 14.0037C83.452 14.0251 83.4683 14.0627 83.4466 14.1164L83.0037 15.6006C82.982 15.6776 82.9352 15.6936 82.8722 15.6507C82.575 15.5201 82.2185 15.4075 81.7953 15.3163C81.3758 15.2234 80.9129 15.1786 80.4069 15.1786C79.7515 15.1786 79.1553 15.2698 78.626 15.454C78.0947 15.6399 77.6391 15.9029 77.2627 16.2445C76.8864 16.5878 76.5965 17.0099 76.393 17.5088C76.1895 18.0095 76.0904 18.5693 76.0904 19.1881C76.0904 19.7425 76.1823 20.2575 76.3696 20.7315C76.5532 21.2035 76.8252 21.6149 77.1817 21.9618C77.5365 22.3105 77.9813 22.5806 78.5107 22.7773C79.0419 22.9723 79.6524 23.0705 80.3439 23.0705C80.8121 23.0705 81.2767 23.0295 81.7304 22.9472C82.1824 22.8667 82.5696 22.7558 82.8901 22.6145C82.9532 22.5806 82.9983 22.602 83.0198 22.6807L83.3818 24.1471C83.4016 24.1686 83.3872 24.1973 83.3296 24.2295C83.0576 24.3707 82.6345 24.5066 82.0583 24.6354C81.4838 24.7677 80.8067 24.8321 80.0305 24.8321C79.0888 24.8321 78.2405 24.7016 77.4861 24.4405C76.7297 24.1811 76.0832 23.8056 75.5467 23.3156C75.01 22.8256 74.5976 22.239 74.3077 21.5523C74.0178 20.8691 73.8701 20.1019 73.8701 19.2542C73.8701 18.4191 74.025 17.6465 74.3329 16.9383C74.6372 16.232 75.073 15.6203 75.6367 15.1035C76.2021 14.5866 76.8792 14.1825 77.6734 13.8892C78.4693 13.5941 79.3517 13.4492 80.3259 13.4492C81.1038 13.4492 81.7521 13.51 82.2725 13.6352Z" fill="white"/>
<path d="M92.0856 24.8004C92.0622 24.8004 92.0352 24.7844 92.001 24.7503L88.3563 19.6142C88.1833 19.7985 88.0104 19.9772 87.8376 20.1526C87.6683 20.3261 87.5026 20.5048 87.3406 20.6891V24.5394C87.3406 24.6037 87.3064 24.6359 87.2397 24.6359H85.3345C85.2697 24.6359 85.2373 24.6037 85.2373 24.5394V13.7252C85.2373 13.6715 85.2697 13.6447 85.3345 13.6447H87.2397C87.3064 13.6447 87.3406 13.6715 87.3406 13.7252L87.3874 18.4554C87.4739 18.3141 87.553 18.2086 87.6179 18.1371C87.6845 18.0674 87.7548 17.9869 87.8304 17.901L88.0771 17.6059L91.576 13.5947C91.5976 13.5714 91.6246 13.5625 91.657 13.5625L93.9585 13.6447C94.0017 13.6447 94.0304 13.6608 94.0467 13.6931C94.0647 13.7252 94.0556 13.7592 94.0232 13.7913L89.8851 18.3248C90.6288 19.346 91.3762 20.3689 92.1252 21.3919C92.8744 22.413 93.6217 23.4395 94.3672 24.4732C94.3906 24.5071 94.3924 24.5429 94.3762 24.5787C94.36 24.618 94.3294 24.6359 94.2862 24.6359L92.0856 24.8004Z" fill="white"/>
<path d="M50.6989 40.3914C50.6323 40.3914 50.5999 40.3592 50.5999 40.293V35.5468H45.3453V40.293C45.3453 40.3592 45.3129 40.3914 45.2462 40.3914H43.3248C43.2582 40.3914 43.2275 40.3592 43.2275 40.293V29.4807C43.2275 29.4252 43.2582 29.3984 43.3248 29.3984H45.2462C45.3129 29.3984 45.3453 29.4252 45.3453 29.4807V33.7387H50.5999V29.4807C50.5999 29.4252 50.6323 29.3984 50.6989 29.3984H52.6204C52.687 29.3984 52.7194 29.4252 52.7194 29.4807V40.293C52.7194 40.3592 52.687 40.3914 52.6204 40.3914H50.6989Z" fill="white"/>
<path d="M57.0386 36.4904C57.2043 36.9696 57.4348 37.3881 57.7355 37.7476C58.038 38.1053 58.4072 38.3878 58.8448 38.5935C59.2824 38.8009 59.7757 38.9046 60.3232 38.9046C60.8797 38.9046 61.3821 38.8009 61.825 38.5935C62.2698 38.3878 62.6426 38.1053 62.9505 37.7476C63.2566 37.3881 63.4944 36.9607 63.6582 36.4671C63.8203 35.9718 63.9031 35.4353 63.9031 34.8594C63.9031 34.3497 63.8275 33.8543 63.6726 33.375C63.5196 32.8957 63.2927 32.4738 62.992 32.1035C62.6912 31.7351 62.3184 31.4365 61.8754 31.2147C61.4307 30.9911 60.9247 30.8804 60.3556 30.8804C59.7757 30.8804 59.2644 30.9894 58.8213 31.2076C58.3783 31.4222 58.0038 31.7173 57.7031 32.0875C57.4024 32.4576 57.1754 32.8886 57.0224 33.384C56.8675 33.8776 56.7919 34.4015 56.7919 34.9578C56.7919 35.5014 56.8729 36.0128 57.0386 36.4904ZM65.6931 37.1914C65.3996 37.9085 64.9872 38.5184 64.4613 39.019C63.9355 39.5198 63.3143 39.9044 62.5994 40.1761C61.8808 40.448 61.1047 40.5839 60.2728 40.5839C59.4193 40.5839 58.6412 40.4426 57.9426 40.1601C57.2403 39.8775 56.6424 39.4894 56.1436 38.9959C55.6448 38.4987 55.2595 37.9122 54.9857 37.2325C54.7102 36.5529 54.5752 35.8162 54.5752 35.0221C54.5752 34.1637 54.7192 33.3786 55.0109 32.665C55.3008 31.9551 55.7024 31.3399 56.2156 30.823C56.7306 30.3062 57.3483 29.9057 58.065 29.6249C58.7818 29.3423 59.5614 29.1992 60.4043 29.1992C61.2812 29.1992 62.0718 29.3423 62.7776 29.6249C63.4853 29.9057 64.0868 30.2956 64.5856 30.7909C65.0826 31.2845 65.4661 31.8746 65.7345 32.5595C66.0028 33.2445 66.1379 33.9848 66.1379 34.7772C66.1379 35.6695 65.9902 36.4742 65.6931 37.1914Z" fill="white"/>
<path d="M83.8161 31.9222C83.0544 31.2802 81.9397 30.9618 80.4739 30.9618C80.0903 30.9618 79.7679 30.9725 79.505 30.994C79.2421 31.0155 79.017 31.0476 78.8316 31.0923V38.7715C79.0063 38.7948 79.2079 38.8073 79.4383 38.8127C79.6689 38.8198 79.9138 38.8234 80.1767 38.8234C80.9565 38.8234 81.6425 38.7268 82.2386 38.5354C82.8346 38.3477 83.3335 38.0723 83.7332 37.7147C84.133 37.3552 84.4373 36.9188 84.6444 36.4073C84.8534 35.8958 84.9577 35.3272 84.9577 34.6958C84.9577 33.4906 84.576 32.5659 83.8161 31.9222ZM86.7135 37.0118C86.3966 37.7289 85.9518 38.3441 85.3845 38.8556C84.7921 39.3975 84.0214 39.8088 83.067 40.086C82.1162 40.3649 81.0375 40.5008 79.8327 40.5008C79.1755 40.5008 78.6046 40.4919 78.1167 40.4704C77.6304 40.4473 77.1893 40.4097 76.7949 40.356C76.7391 40.356 76.7139 40.3238 76.7139 40.2576V29.6242C76.7139 29.558 76.7391 29.5239 76.7949 29.5239C77.3081 29.4614 77.8664 29.4059 78.4714 29.3631C79.0711 29.3202 79.7013 29.2969 80.3586 29.2969C82.6149 29.2969 84.3004 29.76 85.417 30.6846C85.9644 31.1389 86.3966 31.6969 86.7135 32.3568C87.0322 33.013 87.1889 33.7659 87.1889 34.6155C87.1889 35.4953 87.0322 36.2946 86.7135 37.0118Z" fill="white"/>
<path d="M89.0629 40.3914C88.9963 40.3914 88.9639 40.3592 88.9639 40.293V29.4807C88.9639 29.4252 88.9963 29.3984 89.0629 29.3984H90.9843C91.0492 29.3984 91.0833 29.4252 91.0833 29.4807V40.293C91.0833 40.3592 91.0492 40.3914 90.9843 40.3914H89.0629Z" fill="white"/>
<path d="M100.918 40.3914C100.897 40.3914 100.87 40.3735 100.837 40.3431L97.4718 35.3357C97.0882 34.7581 96.7154 34.1769 96.3536 33.5903C95.9934 33.0037 95.6692 32.4207 95.3847 31.8466C95.419 32.5083 95.4405 33.1683 95.4514 33.8263C95.4603 34.4845 95.4675 35.1944 95.4675 35.9545V40.293C95.4675 40.3592 95.4351 40.3914 95.3667 40.3914H93.5803C93.5119 40.3914 93.4795 40.3592 93.4795 40.293V29.4807C93.4795 29.4252 93.5119 29.3984 93.5803 29.3984H95.8619C95.8943 29.4199 95.9159 29.436 95.9268 29.4467L99.3086 34.3253C99.6921 34.8797 100.034 35.4162 100.337 35.9384C100.639 36.4624 100.918 36.9775 101.181 37.4889C101.127 36.8683 101.095 36.2567 101.084 35.6523C101.073 35.0496 101.066 34.3951 101.066 33.6886V29.4807C101.066 29.4252 101.1 29.3984 101.167 29.3984H102.957C103.022 29.3984 103.054 29.4252 103.054 29.4807V40.293C103.054 40.3592 103.022 40.3914 102.957 40.3914H100.918Z" fill="white"/>
<path d="M115.239 39.9666C115.129 39.988 115.032 39.9988 114.946 39.9988C114.867 40.0096 114.796 40.0148 114.729 40.0148C114.666 40.0148 114.588 40.031 114.501 40.0631C114.084 40.1829 113.602 40.2867 113.055 40.3726C112.509 40.4619 111.922 40.5031 111.299 40.5031C109.273 40.5031 107.679 39.9773 106.519 38.9205C106.006 38.4429 105.605 37.8635 105.321 37.1767C105.035 36.4918 104.896 35.7568 104.896 34.9754C104.896 34.1813 105.042 33.4391 105.346 32.7488C105.647 32.0585 106.084 31.4558 106.66 30.939C107.234 30.4204 107.935 30.018 108.761 29.7247C109.586 29.4297 110.526 29.2812 111.58 29.2812C112.334 29.2812 112.997 29.3492 113.572 29.4798C114.148 29.6103 114.576 29.7336 114.862 29.8553C114.927 29.8767 114.949 29.9125 114.927 29.9679L114.468 31.4684C114.457 31.5327 114.417 31.556 114.353 31.5327C114.002 31.3933 113.607 31.2698 113.161 31.1662C112.717 31.0624 112.174 31.0124 111.528 31.0124C110.849 31.0124 110.238 31.1054 109.696 31.2895C109.156 31.4737 108.693 31.7366 108.309 32.0728C107.926 32.409 107.631 32.8132 107.422 33.2853C107.214 33.7592 107.11 34.2832 107.11 34.8627C107.11 35.4367 107.207 35.9661 107.407 36.4436C107.604 36.921 107.888 37.3342 108.261 37.6829C108.632 38.0316 109.082 38.3016 109.616 38.4984C110.144 38.6933 110.744 38.7899 111.415 38.7899C111.84 38.7899 112.21 38.7649 112.522 38.7112C112.835 38.6557 113.076 38.5968 113.253 38.5288V35.9715H111.084C111.019 35.9715 110.985 35.9374 110.985 35.8713V34.3887C110.985 34.3226 111.019 34.2904 111.084 34.2904H115.225C115.289 34.2904 115.322 34.3226 115.322 34.3887V39.8861L115.239 39.9666Z" fill="white"/>
<path d="M124.461 38.4807C124.29 38.8831 124.029 39.2407 123.673 39.5484C123.317 39.8596 122.86 40.1099 122.302 40.2994C121.745 40.489 121.081 40.5838 120.314 40.5838C119.998 40.5838 119.682 40.5624 119.371 40.5195C119.059 40.4765 118.757 40.4175 118.466 40.3496C118.175 40.278 117.91 40.1921 117.671 40.0956C117.43 39.9973 117.221 39.8989 117.048 39.8005C116.99 39.7701 116.974 39.7308 116.996 39.6878L117.473 38.1212C117.495 38.0569 117.539 38.039 117.606 38.073C117.954 38.2893 118.379 38.4736 118.877 38.6202C119.376 38.7668 119.906 38.8402 120.463 38.8402C121.13 38.8402 121.647 38.7025 122.014 38.4324C122.382 38.1606 122.563 37.8065 122.563 37.3719C122.563 36.9695 122.4 36.6352 122.072 36.3687C121.745 36.1022 121.213 35.8554 120.478 35.6283C119.986 35.4745 119.54 35.2975 119.142 35.0972C118.742 34.8933 118.399 34.6626 118.112 34.3944C117.829 34.1297 117.608 33.8293 117.448 33.4984C117.29 33.1657 117.211 32.7885 117.211 32.3628C117.211 31.9068 117.307 31.4883 117.498 31.102C117.688 30.7157 117.964 30.3795 118.32 30.0987C118.676 29.8144 119.101 29.5963 119.6 29.437C120.098 29.2778 120.658 29.1992 121.283 29.1992C121.951 29.1992 122.524 29.2582 122.999 29.3727C123.477 29.4854 123.873 29.6248 124.189 29.7875C124.244 29.809 124.261 29.8484 124.24 29.902L123.747 31.4025C123.736 31.4346 123.714 31.4579 123.68 31.4686C123.65 31.4776 123.621 31.4739 123.597 31.4508C123.413 31.3541 123.116 31.2397 122.704 31.1092C122.294 30.9786 121.809 30.9124 121.251 30.9124C120.9 30.9124 120.604 30.95 120.363 31.0251C120.124 31.1038 119.929 31.2039 119.783 31.3291C119.633 31.4543 119.522 31.5956 119.454 31.7529C119.38 31.9103 119.346 32.0659 119.346 32.2179C119.346 32.6185 119.521 32.944 119.87 33.1873C120.223 33.4322 120.786 33.6737 121.562 33.9133C122.614 34.2513 123.403 34.6715 123.929 35.1776C124.454 35.6838 124.715 36.3722 124.715 37.2414C124.715 37.6635 124.631 38.0784 124.461 38.4807Z" fill="white"/>
<path d="M75.2084 38.6138H70.0943V29.4807C70.0943 29.4235 70.0618 29.3984 69.997 29.3984H68.0755C68.009 29.3984 67.9766 29.4235 67.9766 29.4807V40.2912C67.9766 40.3592 68.009 40.3914 68.0755 40.3914H75.2084V38.6138Z" fill="white"/>
</svg>
